<?xml version="1.0" encoding="utf-8"?>
<!-- Generator: Adobe Illustrator 23.0.1, SVG Export Plug-In . SVG Version: 6.00 Build 0)  -->
<svg version="1.1" xmlns="http://www.w3.org/2000/svg" xmlns:xlink="http://www.w3.org/1999/xlink" x="0px" y="0px"
	 viewBox="0 0 500 500" style="enable-background:new 0 0 500 500;" xml:space="preserve">
<style type="text/css">
	.st0{fill:#FFFFFF;}
	.st1{fill:none;}
	.st2{fill:#1AC500;}
	.st3{fill:#009939;}
	.st4{fill:#555555;}
</style>
<g id="BACKGROUND">
	<rect x="0.67" class="st0" width="499.33" height="500"/>
</g>
<g id="OBJECTS">
	<g>
		<path class="st0" d="M212.56,320.09c0.03,0,0.04,0,0.05,0c0.04-0.02,0.08-0.04,0.13-0.05c1.37-0.61,2.79-1.01,4.27-1.22
			c1.34-0.19,2.68-0.21,4.02-0.05c2.26,0.27,4.36,1.02,6.29,2.22c1.95,1.21,3.57,2.77,4.97,4.56c0.02,0.02,0.03,0.05,0.05,0.08
			c-0.04,0.01-0.07,0.02-0.1,0.02c-0.6,0.07-1.19,0.13-1.79,0.2c-0.26,0.03-0.49,0.13-0.69,0.3c-0.23,0.19-0.24,0.51-0.03,0.72
			c0.06,0.07,0.14,0.13,0.21,0.18c2.48,1.98,4.96,3.95,7.44,5.92c0.03,0.02,0.06,0.04,0.11,0.07c0.01-0.04,0.02-0.07,0.03-0.1
			c0.56-3.14,1.12-6.28,1.67-9.42c0.1-0.55-0.25-0.85-0.76-0.63c-0.34,0.15-0.65,0.37-0.96,0.57c-0.37,0.23-0.73,0.48-1.1,0.72
			c-2.77-4.28-6.52-7.28-11.4-8.76c-4.89-1.48-9.66-1.06-14.31,1.05C211.3,317.72,211.93,318.9,212.56,320.09z M239.47,336.88
			c-0.08,0-0.13-0.01-0.19-0.01c-0.62-0.01-1.24-0.03-1.86-0.04c-0.6-0.01-1.2-0.02-1.8-0.03c-0.11,0-0.16,0.02-0.18,0.16
			c-0.09,0.64-0.16,1.29-0.3,1.92c-0.74,3.35-2.34,6.21-4.83,8.58c-1.3,1.23-2.77,2.21-4.39,2.96c-1.15,0.52-2.35,0.9-3.59,1.14
			c-0.34,0.07-0.68,0.11-1.05,0.17c0.03-0.08,0.05-0.13,0.07-0.19c0.26-0.65,0.52-1.29,0.76-1.95c0.07-0.2,0.1-0.42,0.09-0.63
			c0-0.32-0.2-0.52-0.49-0.52c-0.12,0-0.24,0.04-0.35,0.09c-2.92,1.26-5.84,2.53-8.77,3.79c-0.04,0.02-0.09,0.04-0.16,0.08
			c0.06,0.04,0.1,0.06,0.14,0.09c1.93,1.52,3.87,3.03,5.8,4.55c0.59,0.46,1.18,0.93,1.77,1.39c0.3,0.23,0.71,0.1,0.8-0.25
			c0.04-0.14,0.06-0.3,0.05-0.44c-0.04-0.57-0.1-1.14-0.16-1.72c0-0.05,0-0.11-0.01-0.16c5.02-0.45,9.31-2.44,12.82-6.04
			C237.14,346.24,239.03,341.9,239.47,336.88z M201.17,325.86c-2.21,4.59-2.76,9.36-1.57,14.3c1.19,4.95,3.9,8.91,7.98,11.96
			c0.81-1.1,1.59-2.18,2.38-3.26c-3.2-2.37-5.43-5.4-6.5-9.23c-1.08-3.84-0.68-7.57,0.95-11.21c0.04,0.05,0.07,0.09,0.1,0.12
			c0.42,0.56,0.83,1.13,1.26,1.69c0.12,0.15,0.27,0.29,0.43,0.39c0.43,0.28,0.8,0.11,0.88-0.4c0.46-3.07,0.92-6.13,1.38-9.2
			c0.02-0.14,0.04-0.29,0.06-0.45c-0.06,0.02-0.08,0.02-0.11,0.03c-2.13,0.77-4.25,1.55-6.38,2.32c-0.9,0.33-1.81,0.65-2.71,0.99
			c-0.36,0.13-0.46,0.57-0.18,0.83c0.12,0.12,0.27,0.22,0.42,0.3C200.08,325.32,200.62,325.59,201.17,325.86z"/>
		<path class="st0" d="M212.56,320.09c-0.63-1.18-1.26-2.37-1.9-3.59c4.65-2.11,9.42-2.53,14.31-1.05c4.88,1.48,8.63,4.48,11.4,8.76
			c0.37-0.24,0.73-0.49,1.1-0.72c0.31-0.2,0.62-0.42,0.96-0.57c0.51-0.22,0.85,0.08,0.76,0.63c-0.56,3.14-1.12,6.28-1.67,9.42
			c-0.01,0.03-0.02,0.06-0.03,0.1c-0.04-0.03-0.08-0.04-0.11-0.07c-2.48-1.97-4.96-3.95-7.44-5.92c-0.07-0.06-0.14-0.12-0.21-0.18
			c-0.21-0.22-0.2-0.53,0.03-0.72c0.2-0.17,0.43-0.27,0.69-0.3c0.6-0.07,1.19-0.13,1.79-0.2c0.03,0,0.06-0.01,0.1-0.02
			c-0.02-0.03-0.03-0.06-0.05-0.08c-1.41-1.8-3.03-3.36-4.97-4.56c-1.94-1.2-4.03-1.95-6.29-2.22c-1.34-0.16-2.68-0.14-4.02,0.05
			c-1.48,0.21-2.9,0.61-4.27,1.22c-0.04,0.02-0.08,0.04-0.13,0.05C212.6,320.09,212.59,320.09,212.56,320.09z"/>
		<path class="st0" d="M239.47,336.88c-0.44,5.02-2.33,9.36-5.82,12.95c-3.5,3.6-7.79,5.59-12.82,6.04c0,0.05,0,0.1,0.01,0.16
			c0.05,0.57,0.11,1.14,0.16,1.72c0.01,0.15-0.01,0.3-0.05,0.44c-0.09,0.36-0.5,0.48-0.8,0.25c-0.59-0.46-1.18-0.92-1.77-1.39
			c-1.93-1.52-3.87-3.03-5.8-4.55c-0.04-0.03-0.08-0.05-0.14-0.09c0.08-0.04,0.12-0.06,0.16-0.08c2.92-1.27,5.84-2.53,8.77-3.79
			c0.11-0.05,0.24-0.09,0.35-0.09c0.29,0.01,0.49,0.21,0.49,0.52c0,0.21-0.02,0.43-0.09,0.63c-0.24,0.65-0.51,1.3-0.76,1.95
			c-0.02,0.05-0.04,0.1-0.07,0.19c0.36-0.06,0.71-0.1,1.05-0.17c1.24-0.24,2.44-0.62,3.59-1.14c1.63-0.74,3.1-1.72,4.39-2.96
			c2.49-2.36,4.1-5.23,4.83-8.58c0.14-0.63,0.21-1.28,0.3-1.92c0.02-0.13,0.07-0.16,0.18-0.16c0.6,0.01,1.2,0.02,1.8,0.03
			c0.62,0.01,1.24,0.02,1.86,0.04C239.34,336.87,239.39,336.88,239.47,336.88z"/>
		<path class="st0" d="M201.17,325.86c-0.54-0.27-1.08-0.54-1.61-0.81c-0.15-0.08-0.3-0.18-0.42-0.3c-0.28-0.26-0.19-0.7,0.18-0.83
			c0.9-0.33,1.81-0.66,2.71-0.99c2.13-0.77,4.25-1.55,6.38-2.32c0.03-0.01,0.06-0.02,0.11-0.03c-0.02,0.16-0.04,0.3-0.06,0.45
			c-0.46,3.07-0.92,6.13-1.38,9.2c-0.08,0.51-0.45,0.68-0.88,0.4c-0.16-0.1-0.31-0.24-0.43-0.39c-0.43-0.56-0.84-1.13-1.26-1.69
			c-0.03-0.04-0.06-0.07-0.1-0.12c-1.63,3.64-2.03,7.37-0.95,11.21c1.07,3.83,3.3,6.87,6.5,9.23c-0.79,1.08-1.58,2.16-2.38,3.26
			c-4.08-3.05-6.79-7.01-7.98-11.96C198.4,335.22,198.96,330.45,201.17,325.86z"/>
	</g>
	<g>
		<path class="st1" d="M254.12,228.03c0,9.06-1.89,17.68-5.29,25.49c-2.84,6.54-6.74,12.5-11.48,17.69
			c10.59-11.32,17.09-26.52,17.09-43.24c0-19.75-9.04-37.38-23.21-49C245.22,190.71,254.12,208.32,254.12,228.03z"/>
		<path class="st2" d="M180.36,225.75l-3.77-6.92l-12,25.93c-0.35,0.76-1.11,1.25-1.95,1.25c-0.01,0-0.02,0-0.03,0l-11.63-0.18
			c-0.44,2.79-1.45,5.38-2.88,7.68h26.5c-1.97-3.16-3.13-6.87-3.13-10.86C171.47,235.65,174.99,229.46,180.36,225.75z"/>
		<path class="st2" d="M208.28,242.66c0-8.96-7.29-16.26-16.26-16.26c-2.05,0-4.01,0.4-5.82,1.09l6.27,11.51
			c1.82,0.23,3.24,1.77,3.24,3.65c0,2.04-1.66,3.7-3.7,3.7c-2.04,0-3.7-1.66-3.7-3.7c0-0.58,0.14-1.11,0.38-1.6l-6.27-11.5
			c-4.04,2.96-6.67,7.72-6.67,13.1c0,4.18,1.6,7.98,4.19,10.86h24.13C206.68,250.64,208.28,246.83,208.28,242.66z"/>
		<path class="st2" d="M137.61,223.33l4.55-9.84c0.09-0.2,0.21-0.37,0.35-0.53l-2.26-3.9h-6.73v-4.3h7.97
			c0.77,0,1.47,0.41,1.86,1.07l3.74,6.46l26.15,0.4l-1.33-2.44l3.77-2.06l8.45,15.51c2.43-1.02,5.1-1.58,7.89-1.58
			c3.26,0,6.34,0.79,9.09,2.14c-0.45-0.72-0.9-1.44-1.37-2.16c-0.44-0.67-0.94-1.3-1.39-1.96c-0.48-0.71-0.84-1.48-0.99-2.33
			c-0.18-0.98-0.1-1.94,0.32-2.84c0.44-0.95,0.96-1.86,1.43-2.8c0.36-0.7,0.71-1.41,1.04-2.13c0.14-0.31,0.1-0.28-0.13-0.42
			c-1-0.58-2-1.15-2.99-1.73c-0.47-0.28-0.91-0.59-1.37-0.88c-0.03-0.02-0.05-0.05-0.08-0.07c0-0.02,0.01-0.04,0.01-0.07
			c0.52,0,1.05,0.01,1.57,0c3.21-0.04,6.42-0.08,9.63-0.12c0.49-0.01,0.99-0.01,1.48-0.03c0.15-0.01,0.24,0.04,0.32,0.16
			c0.58,0.89,1.2,1.77,1.75,2.68c1.09,1.79,2.16,3.59,3.21,5.41c0.5,0.86,0.95,1.74,1.42,2.62c0.03,0.06,0.05,0.12,0.09,0.23
			c-0.35-0.17-0.66-0.31-0.97-0.46c-1.28-0.6-2.55-1.21-3.82-1.82c-0.13-0.06-0.2-0.06-0.28,0.07c-0.56,0.96-1.15,1.9-1.51,2.96
			c-0.25,0.74-0.39,1.49-0.28,2.27c0,0.02,0.01,0.05,0.02,0.09c4.49,0,8.98,0,13.5,0c-0.13,3.53-0.27,7.04-0.4,10.57
			c-0.25,0.02-0.47,0.05-0.7,0.06c-1.7,0.07-3.4,0.16-5.1,0.2c-1.96,0.04-3.91,0.06-5.87,0.05c-0.07,0-0.14,0-0.21,0
			c1.98,3.16,3.14,6.87,3.14,10.86c0,3.99-1.16,7.7-3.13,10.86h39.39c3.4-7.81,5.29-16.43,5.29-25.49c0-19.7-8.91-37.32-22.9-49.06
			c-10.92-8.95-24.89-14.33-40.11-14.33c-33.06,0-60.19,25.34-63.06,57.66c0.87-0.11,1.75-0.19,2.65-0.19
			C133.13,222.1,135.45,222.55,137.61,223.33z M245.11,215.6c0.48,0.94,0.48,1.87,0,2.8c-1.67,3.22-3.34,6.44-5.03,9.64
			c-0.54,1.03-1.16,2.03-1.9,2.93c-0.5,0.62-1.07,1.14-1.86,1.37c-0.49,0.14-1,0.16-1.5,0.15c-1.08-0.01-2.16-0.05-3.24-0.05
			c-0.6,0-1.21,0.07-1.81,0.1c-0.15,0.01-0.13,0.1-0.13,0.19c-0.01,0.96-0.02,1.91-0.03,2.87c0,0.7,0,1.41-0.01,2.11
			c0,0.04,0,0.08-0.01,0.19c-0.1-0.16-0.18-0.27-0.25-0.39c-1.33-2.21-2.68-4.41-3.97-6.63c-0.65-1.11-1.25-2.26-1.79-3.42
			c-0.49-1.04-0.4-0.87,0.03-1.7c1.5-2.95,3.12-5.84,4.89-8.65c0.32-0.5,0.69-0.98,1.04-1.46c0.05-0.07,0.12-0.14,0.17-0.2
			c0.03,0.01,0.05,0.02,0.08,0.03c0,0.57-0.01,1.14,0,1.71c0.01,1.19,0.03,2.38,0.04,3.57c0,0.16,0.04,0.21,0.21,0.21
			c0.83,0,1.67,0.04,2.5,0.03c0.85-0.01,1.68-0.14,2.5-0.37c0.14-0.04,0.2-0.11,0.17-0.25c-0.1-0.44-0.17-0.9-0.32-1.32
			c-0.47-1.33-1.17-2.57-1.84-3.81c-0.9-1.66-1.82-3.32-2.7-5c-0.36-0.7-0.62-1.46-0.92-2.19c-0.06-0.14-0.04-0.24,0.11-0.32
			c1.01-0.57,2.01-1.18,3.04-1.72c1.53-0.8,3.08-1.55,4.69-2.19c0.47-0.19,0.96-0.33,1.43-0.49c0.16-0.06,0.25-0.01,0.32,0.15
			c0.63,1.28,1.27,2.55,1.91,3.82C242.33,210.08,243.71,212.84,245.11,215.6z M205.25,201.11c0.93-1.56,1.83-3.13,2.79-4.67
			c1.07-1.7,2.17-3.39,3.29-5.06c0.41-0.62,0.89-1.2,1.39-1.75c0.71-0.8,1.65-1.2,2.7-1.32c0.81-0.09,1.62-0.15,2.43-0.18
			c1.95-0.07,3.91-0.14,5.87-0.16c1.19-0.01,2.39,0.07,3.58,0.16c0.59,0.04,1.17,0.19,1.74,0.3c0.83,0.17,1.46,0.65,1.98,1.3
			c1.01,1.26,1.78,2.66,2.45,4.12c0.22,0.49,0.42,0.98,0.63,1.48c0.05,0.12,0.11,0.14,0.22,0.09c0.81-0.36,1.62-0.72,2.44-1.07
			c0.75-0.32,1.51-0.64,2.26-0.96c0.05-0.02,0.11-0.04,0.22-0.08c-0.16,0.27-0.3,0.5-0.44,0.73c-2.07,3.42-4.15,6.83-6.22,10.25
			c-0.06,0.1-0.12,0.13-0.23,0.13c-0.97-0.05-1.95-0.09-2.92-0.14c-1.52-0.07-3.04-0.14-4.57-0.21c-0.91-0.04-1.82-0.08-2.74-0.12
			c-0.79-0.04-1.59-0.07-2.44-0.11c0.09-0.07,0.14-0.12,0.2-0.15c0.8-0.48,1.61-0.96,2.41-1.45c0.66-0.4,1.3-0.83,1.95-1.24
			c0.12-0.08,0.13-0.16,0.07-0.29c-0.42-0.85-0.81-1.71-1.25-2.56c-0.34-0.65-0.77-1.26-1.4-1.67c-0.57-0.38-0.45-0.37-0.82,0.09
			c-0.54,0.67-1.05,1.37-1.52,2.1c-1.32,2.06-2.59,4.15-3.92,6.21c-0.54,0.84-1.18,1.62-1.77,2.44c-0.11,0.15-0.22,0.17-0.37,0.07
			c-0.65-0.43-1.32-0.82-1.95-1.28c-2.06-1.48-4.05-3.05-6-4.68C205.17,201.33,205.17,201.24,205.25,201.11z M183.73,199.55
			c7.75,2.48,11.84,0.49,11.84,0.49s-8.7,14.74-20.16,5.68c2.07-1.37,6.83-1.71,6.83-1.71c-3.28-1.05-6.73-0.14-7.96,0.45
			C174.45,201.29,177.88,197.68,183.73,199.55z M152.29,187.98c0,0,4.47,6.53,13.68,8.66c8.11,1.87,7.07,8.6,6.7,10.18
			c-0.56-2.99-3-5.02-6.26-5.53c3.61,1.41,4.96,5.02,5.17,5.84C150.09,206.4,152.29,187.98,152.29,187.98z"/>
		<path class="st2" d="M146.65,245.77l-13.69-0.21c-0.63,0.49-1.41,0.79-2.27,0.79c-0.07,0-0.13-0.02-0.19-0.02
			c0.75,2.46,1.64,4.86,2.67,7.18h9.59C144.7,251.37,146.08,248.71,146.65,245.77z"/>
		<path class="st2" d="M146.9,241.47c-0.37-5.16-3.15-9.65-7.23-12.36l-5.58,12.07c0.01,0.03,0.03,0.07,0.04,0.1L146.9,241.47z"/>
		<polygon class="st2" points="172.72,216.97 149.6,216.62 162.55,238.95 		"/>
		<path class="st2" d="M135.8,227.23c-1.61-0.53-3.32-0.83-5.1-0.83c-0.98,0-1.94,0.1-2.88,0.27c-0.01,0.43-0.03,0.86-0.03,1.29
			c0,3.94,0.38,7.79,1.07,11.53c0.45-0.26,0.96-0.44,1.51-0.49L135.8,227.23z"/>
		<path class="st2" d="M151.2,241.54l7.96,0.12l-14.07-24.26l-3.61,7.79C147.04,228.63,150.82,234.63,151.2,241.54z"/>
		<path class="st3" d="M211.3,206.11c0.63,0.45,1.3,0.85,1.95,1.28c0.15,0.1,0.26,0.08,0.37-0.07c0.59-0.81,1.23-1.59,1.77-2.44
			c1.33-2.06,2.6-4.15,3.92-6.21c0.46-0.73,0.98-1.42,1.52-2.1c0.36-0.45,0.24-0.47,0.82-0.09c0.63,0.42,1.06,1.02,1.4,1.67
			c0.44,0.84,0.83,1.71,1.25,2.56c0.06,0.13,0.06,0.21-0.07,0.29c-0.65,0.41-1.29,0.84-1.95,1.24c-0.8,0.49-1.61,0.97-2.41,1.45
			c-0.06,0.03-0.11,0.08-0.2,0.15c0.85,0.04,1.65,0.08,2.44,0.11c0.91,0.04,1.82,0.08,2.74,0.12c1.52,0.07,3.04,0.14,4.57,0.21
			c0.97,0.05,1.95,0.09,2.92,0.14c0.12,0.01,0.18-0.03,0.23-0.13c2.07-3.42,4.15-6.83,6.22-10.25c0.14-0.23,0.28-0.46,0.44-0.73
			c-0.1,0.04-0.16,0.05-0.22,0.08c-0.76,0.32-1.51,0.63-2.26,0.96c-0.82,0.35-1.63,0.71-2.44,1.07c-0.12,0.05-0.17,0.04-0.22-0.09
			c-0.2-0.5-0.4-0.99-0.63-1.48c-0.67-1.46-1.44-2.86-2.45-4.12c-0.52-0.65-1.15-1.13-1.98-1.3c-0.58-0.12-1.16-0.26-1.74-0.3
			c-1.19-0.09-2.39-0.16-3.58-0.16c-1.96,0.01-3.91,0.09-5.87,0.16c-0.81,0.03-1.63,0.08-2.43,0.18c-1.05,0.12-1.98,0.53-2.7,1.32
			c-0.5,0.55-0.97,1.14-1.39,1.75c-1.12,1.67-2.22,3.35-3.29,5.06c-0.96,1.54-1.86,3.11-2.79,4.67c-0.08,0.13-0.07,0.21,0.06,0.32
			C207.25,203.06,209.24,204.63,211.3,206.11z"/>
		<path class="st3" d="M238.7,203.35c-0.48,0.16-0.96,0.31-1.43,0.49c-1.61,0.64-3.16,1.38-4.69,2.19
			c-1.03,0.54-2.03,1.15-3.04,1.72c-0.14,0.08-0.17,0.18-0.11,0.32c0.31,0.73,0.56,1.49,0.92,2.19c0.87,1.68,1.79,3.33,2.7,5
			c0.67,1.24,1.36,2.47,1.84,3.81c0.15,0.43,0.22,0.88,0.32,1.32c0.03,0.14-0.03,0.21-0.17,0.25c-0.82,0.23-1.65,0.37-2.5,0.37
			c-0.83,0.01-1.67-0.03-2.5-0.03c-0.16,0-0.21-0.05-0.21-0.21c-0.01-1.19-0.03-2.38-0.04-3.57c-0.01-0.57,0-1.14,0-1.71
			c-0.03-0.01-0.05-0.02-0.08-0.03c-0.06,0.07-0.12,0.13-0.17,0.2c-0.35,0.49-0.72,0.96-1.04,1.46c-1.77,2.8-3.38,5.69-4.89,8.65
			c-0.42,0.83-0.52,0.66-0.03,1.7c0.55,1.16,1.14,2.31,1.79,3.42c1.3,2.23,2.65,4.42,3.97,6.63c0.07,0.12,0.15,0.23,0.25,0.39
			c0-0.1,0.01-0.14,0.01-0.19c0-0.7,0-1.41,0.01-2.11c0.01-0.96,0.02-1.91,0.03-2.87c0-0.09-0.02-0.18,0.13-0.19
			c0.6-0.03,1.21-0.1,1.81-0.1c1.08,0,2.16,0.04,3.24,0.05c0.51,0.01,1.01-0.01,1.5-0.15c0.79-0.23,1.36-0.75,1.86-1.37
			c0.74-0.91,1.35-1.9,1.9-2.93c1.69-3.21,3.36-6.43,5.03-9.64c0.48-0.93,0.48-1.86,0-2.8c-1.39-2.76-2.78-5.52-4.16-8.28
			c-0.64-1.27-1.28-2.54-1.91-3.82C238.95,203.34,238.86,203.3,238.7,203.35z"/>
		<path class="st3" d="M215.52,231.75c1.7-0.04,3.4-0.13,5.1-0.2c0.23-0.01,0.45-0.04,0.7-0.06c0.13-3.52,0.27-7.03,0.4-10.57
			c-4.52,0-9.01,0-13.5,0c-0.01-0.04-0.02-0.07-0.02-0.09c-0.11-0.78,0.02-1.53,0.28-2.27c0.36-1.06,0.95-2,1.51-2.96
			c0.08-0.14,0.15-0.13,0.28-0.07c1.27,0.61,2.55,1.21,3.82,1.82c0.31,0.15,0.62,0.29,0.97,0.46c-0.04-0.1-0.06-0.17-0.09-0.23
			c-0.47-0.87-0.92-1.76-1.42-2.62c-1.05-1.81-2.12-3.62-3.21-5.41c-0.55-0.91-1.17-1.79-1.75-2.68c-0.08-0.12-0.17-0.17-0.32-0.16
			c-0.49,0.02-0.99,0.02-1.48,0.03c-3.21,0.04-6.42,0.08-9.63,0.12c-0.52,0.01-1.05,0-1.57,0c0,0.02-0.01,0.04-0.01,0.07
			c0.03,0.02,0.05,0.05,0.08,0.07c0.45,0.3,0.9,0.61,1.37,0.88c0.99,0.59,2,1.16,2.99,1.73c0.24,0.14,0.28,0.11,0.13,0.42
			c-0.33,0.72-0.68,1.42-1.04,2.13c-0.47,0.93-0.99,1.85-1.43,2.8c-0.42,0.9-0.5,1.86-0.32,2.84c0.15,0.85,0.52,1.62,0.99,2.33
			c0.45,0.67,0.95,1.29,1.39,1.96c0.46,0.71,0.91,1.44,1.37,2.16c3.43,1.7,6.31,4.32,8.33,7.54c0.07,0,0.14,0,0.21,0
			C211.6,231.8,213.56,231.79,215.52,231.75z"/>
		<path class="st4" d="M209.44,253.52c-3.64,5.81-10.07,9.7-17.42,9.7c-7.34,0-13.78-3.89-17.42-9.7h-26.5
			c-2.41,3.86-6.06,6.86-10.4,8.45c11.24,17.62,30.95,29.32,53.41,29.32c18.25,0,34.68-7.73,46.24-20.08
			c4.74-5.19,8.64-11.15,11.48-17.69H209.44z"/>
		<path class="st4" d="M142.77,253.52h-9.59c0.7,1.59,1.45,3.15,2.28,4.67C138.3,257.31,140.82,255.68,142.77,253.52z"/>
		<path class="st4" d="M192.02,258.92c4.79,0,9.09-2.09,12.06-5.4h-24.13C182.93,256.82,187.23,258.92,192.02,258.92z"/>
		<path class="st0" d="M132.97,245.56l13.69,0.21c-0.57,2.95-1.95,5.6-3.88,7.75h5.33c1.44-2.3,2.45-4.9,2.88-7.68l11.63,0.18
			c0.01,0,0.02,0,0.03,0c0.84,0,1.6-0.49,1.95-1.25l12-25.93l3.77,6.92c-5.37,3.71-8.89,9.9-8.89,16.91c0,3.99,1.16,7.7,3.13,10.86
			h5.36c-2.6-2.88-4.19-6.68-4.19-10.86c0-5.38,2.64-10.14,6.67-13.1l6.27,11.5c-0.24,0.49-0.38,1.02-0.38,1.6
			c0,2.04,1.66,3.7,3.7,3.7c2.04,0,3.7-1.66,3.7-3.7c0-1.89-1.42-3.42-3.24-3.65l-6.27-11.51c1.81-0.7,3.76-1.09,5.82-1.09
			c8.96,0,16.26,7.29,16.26,16.26c0,4.18-1.6,7.98-4.19,10.86h5.36c1.97-3.16,3.13-6.87,3.13-10.86c0-3.99-1.16-7.71-3.14-10.86
			c-2.02-3.23-4.9-5.85-8.33-7.54c-2.74-1.36-5.82-2.14-9.09-2.14c-2.8,0-5.46,0.57-7.89,1.58l-8.45-15.51l-3.77,2.06l1.33,2.44
			l-26.15-0.4l-3.74-6.46c-0.38-0.66-1.09-1.07-1.86-1.07h-7.97v4.3h6.73l2.26,3.9c-0.14,0.16-0.26,0.33-0.35,0.53l-4.55,9.84
			c-2.16-0.78-4.48-1.22-6.91-1.22c-0.9,0-1.78,0.08-2.65,0.19c-0.13,1.45-0.2,2.91-0.23,4.38c0.94-0.17,1.9-0.27,2.88-0.27
			c1.78,0,3.5,0.3,5.1,0.83L130.36,239c-0.55,0.05-1.05,0.23-1.51,0.49c0.43,2.33,0.98,4.62,1.65,6.85c0.07,0,0.13,0.02,0.19,0.02
			C131.56,246.36,132.34,246.05,132.97,245.56z M172.72,216.97l-10.17,21.98l-12.95-22.33L172.72,216.97z M145.09,217.4l14.07,24.26
			l-7.96-0.12c-0.37-6.91-4.16-12.91-9.72-16.35L145.09,217.4z M139.67,229.11c4.08,2.71,6.85,7.21,7.23,12.36l-12.77-0.19
			c-0.01-0.03-0.03-0.07-0.04-0.1L139.67,229.11z"/>
		<path class="st0" d="M192.02,258.92c-4.79,0-9.09-2.09-12.06-5.4h-5.36c3.64,5.81,10.07,9.7,17.42,9.7
			c7.34,0,13.78-3.89,17.42-9.7h-5.36C201.11,256.82,196.81,258.92,192.02,258.92z"/>
		<path class="st0" d="M148.1,253.52h-5.33c-1.95,2.16-4.46,3.79-7.31,4.67c0.7,1.29,1.46,2.54,2.25,3.78
			C142.04,260.38,145.69,257.38,148.1,253.52z"/>
		<path class="st0" d="M182.25,204.01c0,0-4.76,0.33-6.83,1.71c11.46,9.06,20.16-5.68,20.16-5.68s-4.09,1.99-11.84-0.49
			c-5.85-1.87-9.28,1.74-9.44,4.92C175.52,203.87,178.97,202.96,182.25,204.01z"/>
		<path class="st0" d="M171.58,207.13c-0.21-0.82-1.56-4.42-5.17-5.84c3.26,0.51,5.7,2.54,6.26,5.53c0.37-1.59,1.41-8.31-6.7-10.18
			c-9.21-2.13-13.68-8.66-13.68-8.66S150.09,206.4,171.58,207.13z"/>
	</g>
</g>
<g id="DESIGNED_BY_FREEPIK">
</g>
</svg>
